<svg xmlns="http://www.w3.org/2000/svg" viewBox="0 0 800 600" width="800" height="600">
  <defs>
    <linearGradient id="bgGrad" x1="0" y1="0" x2="0" y2="1">
      <stop offset="0%" stop-color="#0f0c29"/>
      <stop offset="50%" stop-color="#302b63"/>
      <stop offset="100%" stop-color="#24243e"/>
    </linearGradient>
    <linearGradient id="deskGrad" x1="0" y1="0" x2="0" y2="1">
      <stop offset="0%" stop-color="#3d3d56"/>
      <stop offset="100%" stop-color="#2a2a40"/>
    </linearGradient>
    <linearGradient id="screenGrad" x1="0" y1="0" x2="0" y2="1">
      <stop offset="0%" stop-color="#0d1117"/>
      <stop offset="100%" stop-color="#161b22"/>
    </linearGradient>
    <linearGradient id="screenContent" x1="0" y1="0" x2="1" y2="1">
      <stop offset="0%" stop-color="#1a2332" stop-opacity="0.8"/>
      <stop offset="100%" stop-color="#0d1117" stop-opacity="0.9"/>
    </linearGradient>
    <linearGradient id="caseGrad" x1="0" y1="0" x2="1" y2="1">
      <stop offset="0%" stop-color="#2c2c3e"/>
      <stop offset="100%" stop-color="#1a1a2e"/>
    </linearGradient>
    <linearGradient id="skinGrad" x1="0" y1="0" x2="1" y2="1">
      <stop offset="0%" stop-color="#ffd5b8"/>
      <stop offset="100%" stop-color="#f0b88b"/>
    </linearGradient>
    <radialGradient id="glowLight" cx="50%" cy="40%" r="50%">
      <stop offset="0%" stop-color="#6c63ff" stop-opacity="0.08"/>
      <stop offset="100%" stop-color="#6c63ff" stop-opacity="0"/>
    </radialGradient>
    <linearGradient id="monitorBezel" x1="0" y1="0" x2="0" y2="1">
      <stop offset="0%" stop-color="#1e1e32"/>
      <stop offset="100%" stop-color="#12121e"/>
    </linearGradient>
    <linearGradient id="chairGrad" x1="0" y1="0" x2="0" y2="1">
      <stop offset="0%" stop-color="#38385c"/>
      <stop offset="100%" stop-color="#1e1e32"/>
    </linearGradient>
  </defs>

  <!-- 背景 -->
  <rect width="800" height="600" fill="url(#bgGrad)"/>
  <rect width="800" height="600" fill="url(#glowLight)"/>

  <!-- 地板 -->
  <rect x="0" y="470" width="800" height="130" fill="#0d0d1a"/>
  <line x1="0" y1="470" x2="800" y2="470" stroke="#1a1a30" stroke-width="1.5"/>

  <!-- ====== 桌子 ====== -->
  <!-- 左桌腿 -->
  <rect x="130" y="380" width="14" height="100" rx="3" fill="#2a2a40"/>
  <rect x="130" y="380" width="14" height="100" rx="3" fill="none" stroke="#3d3d56" stroke-width="0.5" opacity="0.5"/>
  <!-- 右桌腿 -->
  <rect x="650" y="380" width="14" height="100" rx="3" fill="#2a2a40"/>
  <rect x="650" y="380" width="14" height="100" rx="3" fill="none" stroke="#3d3d56" stroke-width="0.5" opacity="0.5"/>
  <!-- 桌面 -->
  <rect x="100" y="360" width="600" height="22" rx="5" fill="url(#deskGrad)"/>
  <rect x="100" y="360" width="600" height="3" rx="1.5" fill="#5a5a7a" opacity="0.4"/>

  <!-- ====== 台式机主机（放反→已修正：正面朝前） ====== -->
  <!-- 主机箱体 -->
  <rect x="620" y="260" width="80" height="100" rx="5" fill="url(#caseGrad)"/>
  <rect x="620" y="260" width="80" height="100" rx="5" fill="none" stroke="#3d3d56" stroke-width="1.5"/>
  <!-- 前面板 -->
  <rect x="626" y="268" width="68" height="84" rx="3" fill="#12121e"/>
  <!-- 电源指示灯 -->
  <circle cx="626" cy="276" r="3" fill="#00e676"/>
  <circle cx="626" cy="276" r="5" fill="#00e676" opacity="0.2"/>
  <!-- 硬盘指示灯 -->
  <circle cx="638" cy="276" r="2" fill="#448aff" opacity="0.7">
    <animate attributeName="opacity" values="0.7;0.2;0.7" dur="1.5s" repeatCount="indefinite"/>
  </circle>
  <!-- 光驱 -->
  <rect x="630" y="284" width="60" height="10" rx="2" fill="#1a1a2e" stroke="#2c2c3e" stroke-width="0.5"/>
  <rect x="634" y="286" width="16" height="6" rx="1" fill="#1e1e32"/>
  <!-- USB 接口 -->
  <rect x="634" y="302" width="10" height="4" rx="1" fill="#0d0d1a" stroke="#2c2c3e" stroke-width="0.5"/>
  <rect x="648" y="302" width="10" height="4" rx="1" fill="#0d0d1a" stroke="#2c2c3e" stroke-width="0.5"/>
  <!-- 音频接口 -->
  <circle cx="637" cy="314" r="2.5" fill="#0d0d1a" stroke="#3d3d56" stroke-width="0.5"/>
  <circle cx="649" cy="314" r="2.5" fill="#0d0d1a" stroke="#3d3d56" stroke-width="0.5"/>
  <!-- 电源按钮 -->
  <circle cx="660" cy="338" r="6" fill="#1a1a2e" stroke="#3d3d56" stroke-width="1"/>
  <circle cx="660" cy="338" r="3" fill="#00e676" opacity="0.6"/>
  <!-- 散热孔 -->
  <g opacity="0.3">
    <line x1="630" y1="324" x2="690" y2="324" stroke="#5a5a7a" stroke-width="0.5"/>
    <line x1="630" y1="328" x2="690" y2="328" stroke="#5a5a7a" stroke-width="0.5"/>
    <line x1="630" y1="332" x2="690" y2="332" stroke="#5a5a7a" stroke-width="0.5"/>
  </g>

  <!-- ====== 显示器（放反→已修正：屏幕朝人） ====== -->
  <!-- 显示器支架 -->
  <rect x="385" y="310" width="30" height="50" rx="3" fill="#2a2a40"/>
  <rect x="385" y="310" width="30" height="50" rx="3" fill="none" stroke="#3d3d56" stroke-width="0.5" opacity="0.5"/>
  <!-- 底座 -->
  <rect x="360" y="350" width="80" height="8" rx="4" fill="#3d3d56"/>
  <rect x="370" y="345" width="60" height="8" rx="3" fill="#2a2a40"/>
  <!-- 显示器外框 -->
  <rect x="250" y="130" width="300" height="190" rx="10" fill="url(#monitorBezel)"/>
  <rect x="250" y="130" width="300" height="190" rx="10" fill="none" stroke="#3d3d56" stroke-width="1"/>
  <!-- 屏幕内框 -->
  <rect x="262" y="142" width="276" height="166" rx="4" fill="#0a0a12"/>
  <!-- 屏幕发光 -->
  <rect x="264" y="144" width="272" height="162" rx="3" fill="url(#screenContent)"/>
  <rect x="264" y="144" width="272" height="162" rx="3" fill="none" stroke="#448aff" stroke-width="0.5" opacity="0.15"/>

  <!-- 屏幕内容 - IDE 代码 -->
  <g opacity="0.5">
    <!-- 行号区 -->
    <rect x="272" y="150" width="18" height="148" fill="#0d1117" opacity="0.5"/>
    <!-- 侧栏 -->
    <rect x="264" y="150" width="8" height="150" fill="#161b22"/>
    <!-- 代码 -->
    <g font-family="'Consolas','Courier New',monospace" font-size="7" opacity="0.6">
      <text x="294" y="162" fill="#58a6ff">import</text>
      <text x="318" y="162" fill="#79c0ff"> { Agent } </text>
      <text x="358" y="162" fill="#58a6ff">from</text>
      <text x="378" y="162" fill="#a5d6ff">"./agent"</text>
      <text x="294" y="174" fill="#58a6ff">import</text>
      <text x="318" y="174" fill="#79c0ff"> { Tool } </text>
      <text x="358" y="174" fill="#58a6ff">from</text>
      <text x="378" y="174" fill="#a5d6ff">"./tools"</text>
      <text x="280" y="190" fill="#ff7b72">const</text>
      <text x="306" y="190" fill="#79c0ff">agent</text>
      <text x="330" y="190" fill="#ff7b72">=</text>
      <text x="342" y="190" fill="#79c0ff">new</text>
      <text x="366" y="190" fill="#d2a8ff">Agent</text>
      <text x="294" y="202" fill="#79c0ff">  model:</text>
      <text x="334" y="202" fill="#a5d6ff">"gpt-4"</text>
      <text x="294" y="214" fill="#79c0ff">  tools: [</text>
      <text x="306" y="226" fill="#79c0ff">    webSearch,</text>
      <text x="306" y="238" fill="#79c0ff">    codeRunner,</text>
      <text x="306" y="250" fill="#79c0ff">    fileSystem,</text>
      <text x="294" y="262" fill="#79c0ff">  ]</text>
      <text x="280" y="278" fill="#7ee787">agent</text>
      <text x="310" y="278" fill="#ff7b72">.</text>
      <text x="316" y="278" fill="#d2a8ff">run</text>
      <text x="340" y="278" fill="#a5d6ff">(</text>
    </g>
    <!-- 光标 -->
    <rect x="340" y="282" width="1.5" height="10" fill="#58a6ff" opacity="0.8">
      <animate attributeName="opacity" values="0.8;0.1;0.8" dur="1s" repeatCount="indefinite"/>
    </rect>
  </g>

  <!-- 底部边框发光 -->
  <rect x="262" y="306" width="276" height="2" fill="#448aff" opacity="0.15"/>

  <!-- 显示器品牌 -->
  <circle cx="400" cy="316" r="2" fill="#5a5a7a" opacity="0.4"/>

  <!-- ====== 键盘 ====== -->
  <rect x="270" y="382" width="260" height="48" rx="6" fill="#12121e" stroke="#2c2c3e" stroke-width="1"/>
  <!-- 键帽行 -->
  <g fill="#1e1e32" stroke="#2c2c3e" stroke-width="0.3">
    <!-- 第1行 -->
    <rect x="278" y="387" width="16" height="10" rx="1.5"/>
    <rect x="298" y="387" width="16" height="10" rx="1.5"/>
    <rect x="318" y="387" width="16" height="10" rx="1.5"/>
    <rect x="338" y="387" width="16" height="10" rx="1.5"/>
    <rect x="358" y="387" width="16" height="10" rx="1.5"/>
    <rect x="378" y="387" width="16" height="10" rx="1.5"/>
    <rect x="398" y="387" width="16" height="10" rx="1.5"/>
    <rect x="418" y="387" width="16" height="10" rx="1.5"/>
    <rect x="438" y="387" width="16" height="10" rx="1.5"/>
    <rect x="458" y="387" width="16" height="10" rx="1.5"/>
    <rect x="478" y="387" width="16" height="10" rx="1.5"/>
    <rect x="498" y="387" width="16" height="10" rx="1.5"/>
    <!-- 第2行 -->
    <rect x="280" y="400" width="16" height="10" rx="1.5"/>
    <rect x="300" y="400" width="16" height="10" rx="1.5"/>
    <rect x="320" y="400" width="16" height="10" rx="1.5"/>
    <rect x="340" y="400" width="16" height="10" rx="1.5"/>
    <rect x="360" y="400" width="16" height="10" rx="1.5"/>
    <rect x="380" y="400" width="16" height="10" rx="1.5"/>
    <rect x="400" y="400" width="16" height="10" rx="1.5"/>
    <rect x="420" y="400" width="16" height="10" rx="1.5"/>
    <rect x="440" y="400" width="16" height="10" rx="1.5"/>
    <rect x="460" y="400" width="16" height="10" rx="1.5"/>
    <rect x="480" y="400" width="16" height="10" rx="1.5"/>
    <rect x="500" y="400" width="16" height="10" rx="1.5"/>
    <!-- 第3行 - 空格 -->
    <rect x="278" y="413" width="20" height="10" rx="1.5"/>
    <rect x="302" y="413" width="20" height="10" rx="1.5"/>
    <rect x="326" y="413" width="90" height="10" rx="1.5" fill="#25253d" stroke="#3d3d56"/>
    <rect x="420" y="413" width="20" height="10" rx="1.5"/>
    <rect x="444" y="413" width="20" height="10" rx="1.5"/>
    <rect x="468" y="413" width="20" height="10" rx="1.5"/>
    <rect x="492" y="413" width="24" height="10" rx="1.5"/>
  </g>

  <!-- ====== 鼠标 ====== -->
  <ellipse cx="555" cy="398" rx="14" ry="20" fill="#12121e" stroke="#2c2c3e" stroke-width="1"/>
  <ellipse cx="555" cy="398" rx="8" ry="12" fill="none" stroke="#2c2c3e" stroke-width="0.3" opacity="0.3"/>
  <!-- 鼠标滚轮 -->
  <rect x="553" y="384" width="4" height="8" rx="2" fill="#2c2c3e"/>
  <!-- 鼠标线 -->
  <path d="M555 376 Q555 368 560 362 Q568 355 572 358" fill="none" stroke="#2c2c3e" stroke-width="1.5"/>

  <!-- ====== 椅子 ====== -->
  <!-- 椅背支架 -->
  <rect x="295" y="200" width="10" height="170" rx="3" fill="#2a2a40"/>
  <!-- 椅背 -->
  <path d="M240 200 Q230 280 240 340 L260 340 Q260 280 260 200 Z" fill="url(#chairGrad)"/>
  <rect x="240" y="200" width="50" height="140" rx="15" fill="url(#chairGrad)"/>
  <rect x="248" y="208" width="34" height="124" rx="10" fill="#2a2a40" opacity="0.5"/>
  <!-- 坐垫 -->
  <rect x="235" y="390" width="130" height="16" rx="8" fill="url(#chairGrad)"/>
  <!-- 椅子腿 -->
  <rect x="250" y="406" width="8" height="64" rx="3" fill="#2a2a40"/>
  <rect x="280" y="406" width="8" height="64" rx="3" fill="#2a2a40"/>
  <rect x="310" y="406" width="8" height="64" rx="3" fill="#2a2a40"/>
  <rect x="340" y="406" width="8" height="64" rx="3" fill="#2a2a40"/>
  <!-- 滚轮 -->
  <circle cx="254" cy="470" r="4" fill="#1a1a2e"/>
  <circle cx="284" cy="470" r="4" fill="#1a1a2e"/>
  <circle cx="314" cy="470" r="4" fill="#1a1a2e"/>
  <circle cx="344" cy="470" r="4" fill="#1a1a2e"/>

    <!-- ====== 智能体人物 ====== -->
  <!-- 躯干（加长，成熟比例） -->
  <rect x="264" y="280" width="72" height="110" rx="10" fill="#e8e8ee"/>
  <!-- 衣物 - 马甲/衬衫层叠 -->
  <rect x="268" y="280" width="64" height="40" rx="6" fill="#ffffff"/>
  <rect x="268" y="315" width="64" height="75" rx="6" fill="#d4d0dc"/>
  <!-- 衣领（衬衫翻领） -->
  <path d="M283 280 L300 298 L317 280" fill="none" stroke="#c8c4d0" stroke-width="1.8"/>
  <path d="M283 280 L300 298" fill="none" stroke="#f0ece4" stroke-width="0.8"/>
  <path d="M317 280 L300 298" fill="none" stroke="#f0ece4" stroke-width="0.8"/>
  <!-- 领带 -->
  <path d="M296 298 L300 340 L304 298" fill="#6c5ce7" opacity="0.5"/>
  <!-- 马甲V领 -->
  <path d="M272 310 L300 298 L328 310 L328 390 L272 390 Z" fill="none" stroke="#b8b4c0" stroke-width="0.5" opacity="0.3"/>

  <!-- 左臂（自然伸向键盘） -->
  <path d="M264 292 Q240 320 256 380" fill="none" stroke="#e8e8ee" stroke-width="16" stroke-linecap="round"/>
  <ellipse cx="260" cy="385" rx="11" ry="9" fill="url(#skinGrad)"/>
  <line x1="258" y1="393" x2="256" y2="384" stroke="#e8a87c" stroke-width="1.5" stroke-linecap="round" opacity="0.3"/>

  <!-- 右臂（自然伸向鼠标） -->
  <path d="M336 292 Q358 318 348 380" fill="none" stroke="#e8e8ee" stroke-width="16" stroke-linecap="round"/>
  <ellipse cx="348" cy="388" rx="11" ry="9" fill="url(#skinGrad)"/>

  <!-- 脖子 -->
  <rect x="290" y="256" width="20" height="26" rx="7" fill="url(#skinGrad)"/>

  <!-- ====== 头部（缩小，偏写实比例） ====== -->
  <ellipse cx="300" cy="228" rx="35" ry="42" fill="url(#skinGrad)"/>

  <!-- ====== 头发（饱满发量） ====== -->
  <!-- 主发块 -->
  <path d="M265 220 Q265 178 300 172 Q335 178 335 220 Q335 198 320 192 Q310 196 300 190 Q290 196 280 192 Q265 198 265 220" fill="#1a1a2e"/>
  <!-- 上侧发量补足 -->
  <path d="M270 200 Q280 178 300 176 Q320 178 330 200 Q325 186 310 184 Q300 182 290 184 Q275 186 270 200" fill="#2c2c3e" opacity="0.5"/>
  <!-- 刘海 -->
  <path d="M268 215 Q272 198 285 192 Q292 204 300 190 Q308 204 315 192 Q328 198 332 215" fill="#1a1a2e"/>
  <path d="M272 218 Q275 202 285 198 Q288 206 295 200 Q302 208 308 198 Q315 206 318 200 Q325 202 328 218" fill="#3a3a50" opacity="0.4"/>
  <path d="M265 220 Q258 210 260 198 Q264 190 270 198" fill="#1a1a2e"/>
  <path d="M335 220 Q342 210 340 198 Q336 190 330 198" fill="#1a1a2e"/>
  <path d="M268 218 Q272 210 280 206 Q290 210 300 208 Q310 210 320 206 Q328 210 332 218" fill="#1a1a2e" opacity="0.3"/>

  <!-- 眉毛 -->
  <path d="M278 215 Q286 212 294 215" fill="none" stroke="#3a2520" stroke-width="2.2" stroke-linecap="round"/>
  <path d="M306 215 Q314 212 322 215" fill="none" stroke="#3a2520" stroke-width="2.2" stroke-linecap="round"/>

  <!-- 眼睛 -->
  <ellipse cx="288" cy="228" rx="7" ry="6.5" fill="#ffffff"/>
  <ellipse cx="290" cy="229" rx="4.5" ry="5" fill="#2a2a3e"/>
  <ellipse cx="291" cy="227" rx="2" ry="2" fill="#ffffff"/>
  <ellipse cx="312" cy="228" rx="7" ry="6.5" fill="#ffffff"/>
  <ellipse cx="314" cy="229" rx="4.5" ry="5" fill="#2a2a3e"/>
  <ellipse cx="315" cy="227" rx="2" ry="2" fill="#ffffff"/>

  <!-- 睫毛 -->
  <g stroke="#3a2520" stroke-width="0.7" opacity="0.3">
    <line x1="282" y1="223" x2="280" y2="220"/>
    <line x1="285" y1="222" x2="283" y2="219"/>
    <line x1="318" y1="223" x2="320" y2="220"/>
    <line x1="315" y1="222" x2="317" y2="219"/>
  </g>

  <!-- 眼镜 -->
  <rect x="274" y="221" width="22" height="16" rx="4" fill="none" stroke="#5a5a7a" stroke-width="1.2"/>
  <rect x="304" y="221" width="22" height="16" rx="4" fill="none" stroke="#5a5a7a" stroke-width="1.2"/>
  <line x1="296" y1="229" x2="304" y2="229" stroke="#5a5a7a" stroke-width="1.2"/>
  <line x1="274" y1="226" x2="268" y2="224" stroke="#5a5a7a" stroke-width="1.2"/>
  <line x1="326" y1="226" x2="332" y2="224" stroke="#5a5a7a" stroke-width="1.2"/>
  <rect x="276" y="223" width="18" height="12" rx="3" fill="#448aff" opacity="0.05"/>
  <rect x="306" y="223" width="18" height="12" rx="3" fill="#448aff" opacity="0.05"/>

  <!-- 耳朵 -->
  <ellipse cx="263" cy="230" rx="5" ry="8" fill="url(#skinGrad)"/>
  <ellipse cx="263" cy="230" rx="2.5" ry="4" fill="#e8a87c" opacity="0.3"/>
  <ellipse cx="337" cy="230" rx="5" ry="8" fill="url(#skinGrad)"/>
  <ellipse cx="337" cy="230" rx="2.5" ry="4" fill="#e8a87c" opacity="0.3"/>

  <!-- 鼻子 -->
  <path d="M299 234 Q300 242 302 234" fill="none" stroke="#d4a574" stroke-width="1.2" stroke-linecap="round"/>

  <!-- 嘴巴（微笑） -->
  <path d="M290 250 Q300 260 310 250" fill="none" stroke="#c97b5a" stroke-width="1.8" stroke-linecap="round"/>
  <path d="M293 252 Q300 256 307 252" fill="none" stroke="#e8a87c" stroke-width="0.6" stroke-linecap="round" opacity="0.4"/>

  <!-- 面部红晕 -->
  <ellipse cx="278" cy="243" rx="7" ry="3.5" fill="#ff6b6b" opacity="0.06"/>
  <ellipse cx="322" cy="243" rx="7" ry="3.5" fill="#ff6b6b" opacity="0.06"/>

  <!-- 头顶智能体标识 -->
  <circle cx="287" cy="178" r="3" fill="#6c63ff"/>
  <circle cx="300" cy="174" r="3" fill="#448aff"/>
  <circle cx="313" cy="178" r="3" fill="#6c63ff"/>
  <line x1="287" y1="178" x2="300" y2="174" stroke="#6c63ff" stroke-width="0.8" opacity="0.3"/>
  <line x1="300" y1="174" x2="313" y2="178" stroke="#448aff" stroke-width="0.8" opacity="0.3"/>

  <!-- ====== 腿部 ====== -->
  <rect x="276" y="388" width="22" height="42" rx="5" fill="#1a1a2e"/>
  <rect x="302" y="388" width="22" height="42" rx="5" fill="#1a1a2e"/>

  <!-- ====== 鞋子 ====== -->
  <rect x="274" y="427" width="26" height="10" rx="4" fill="#0d0d1a"/>
  <rect x="300" y="427" width="26" height="10" rx="4" fill="#0d0d1a"/>


<!-- ====== 桌上物品 ====== -->
  <!-- 马克杯 -->
  <rect x="158" y="332" width="26" height="28" rx="4" fill="#e74c3c"/>
  <ellipse cx="171" cy="332" rx="13" ry="5" fill="#c0392b"/>
  <ellipse cx="171" cy="332" rx="8" ry="3" fill="#2c1810"/>
  <!-- 杯把 -->
  <path d="M184 340 Q196 340 196 348 Q196 356 184 356" fill="none" stroke="#e74c3c" stroke-width="3" stroke-linecap="round"/>
  <!-- 杯面文字 -->
  <text x="171" y="350" text-anchor="middle" font-family="sans-serif" font-size="5" fill="white" opacity="0.7">AI</text>
  <!-- 水汽 -->
  <path d="M168 326 Q165 320 168 314" fill="none" stroke="white" stroke-width="1" opacity="0.2">
    <animate attributeName="opacity" values="0.2;0;0.2" dur="3s" repeatCount="indefinite"/>
  </path>
  <path d="M174 326 Q177 318 174 312" fill="none" stroke="white" stroke-width="1" opacity="0.15">
    <animate attributeName="opacity" values="0;0.2;0" dur="3s" repeatCount="indefinite"/>
  </path>

  <!-- 桌面装饰 - 小机器人 -->
  <g transform="translate(530, 330)">
    <rect x="0" y="10" width="18" height="20" rx="4" fill="#6c63ff" opacity="0.5"/>
    <circle cx="9" cy="6" r="7" fill="#6c63ff" opacity="0.5"/>
    <circle cx="7" cy="5" r="1.5" fill="white" opacity="0.7"/>
    <circle cx="11" cy="5" r="1.5" fill="white" opacity="0.7"/>
    <path d="M6 10 L12 10" stroke="white" stroke-width="0.8" opacity="0.4"/>
  </g>

  <!-- ====== 标签 ====== -->
  <text x="400" y="555" text-anchor="middle" font-family="'Microsoft YaHei','PingFang SC',sans-serif" font-size="22" fill="#6c63ff" opacity="0.7" letter-spacing="5">AI 智能体 · 台式工作站</text>
  <line x1="280" y1="565" x2="520" y2="565" stroke="#6c63ff" stroke-width="1" opacity="0.2"/>
  <line x1="340" y1="568" x2="460" y2="568" stroke="#6c63ff" stroke-width="0.5" opacity="0.1"/>
</svg>

